<svg xmlns="http://www.w3.org/2000/svg" xmlns:xlink="http://www.w3.org/1999/xlink" width="512" height="512" viewBox="0 0 512 512"><defs><clipPath id="b"><rect width="512" height="512"/></clipPath></defs><g id="a" clip-path="url(#b)"><rect width="512" height="512" rx="80" fill="#fff"/><line y1="392" transform="translate(190 60)" fill="none" stroke="#d1d5db" stroke-width="6"/><line y1="392" transform="translate(322 60)" fill="none" stroke="#d1d5db" stroke-width="6"/><line y1="392" transform="translate(256.5 60)" fill="none" stroke="#d1d5db" stroke-width="6"/><line y1="392" transform="translate(452 190.5) rotate(90)" fill="none" stroke="#d1d5db" stroke-width="6"/><line y1="392" transform="translate(452 322.5) rotate(90)" fill="none" stroke="#d1d5db" stroke-width="6"/><line y1="392" transform="translate(452 257) rotate(90)" fill="none" stroke="#d1d5db" stroke-width="6"/><line x2="370" y2="370" transform="translate(71 71)" fill="none" stroke="#d1d5db" stroke-width="6"/><line y1="370" x2="370" transform="translate(71 71)" fill="none" stroke="#d1d5db" stroke-width="6"/><g transform="translate(160 160)" fill="none" stroke="#9ca3af" stroke-width="6"><circle cx="96" cy="96" r="96" stroke="none"/><circle cx="96" cy="96" r="93" fill="none"/></g><rect width="296" height="296" rx="4" transform="translate(108 108)" fill="none" stroke="#9ca3af" stroke-width="6"/><g transform="translate(392 392)" fill="none" stroke="#6b7280" stroke-width="6"><circle cx="30" cy="30" r="30" stroke="none"/><circle cx="30" cy="30" r="27" fill="none"/></g><g transform="translate(392 60)" fill="none" stroke="#6b7280" stroke-width="6"><circle cx="30" cy="30" r="30" stroke="none"/><circle cx="30" cy="30" r="27" fill="none"/></g><g transform="translate(60 60)" fill="none" stroke="#6b7280" stroke-width="6"><circle cx="30" cy="30" r="30" stroke="none"/><circle cx="30" cy="30" r="27" fill="none"/></g><g transform="translate(60 392)" fill="none" stroke="#6b7280" stroke-width="6"><circle cx="30" cy="30" r="30" stroke="none"/><circle cx="30" cy="30" r="27" fill="none"/></g><g transform="translate(60 60)" fill="none" stroke="#4b5563" stroke-width="6"><rect width="392" height="392" rx="30" stroke="none"/><rect x="3" y="3" width="386" height="386" rx="27" fill="none"/></g></g></svg>